<svg width="29" height="29" viewBox="0 0 29 29" fill="none" xmlns="http://www.w3.org/2000/svg">
<circle cx="14.5" cy="14.5" r="14.5" fill="#FF8A00"/>
<path d="M3.625 13.5C3.07272 13.5 2.625 13.9477 2.625 14.5C2.625 15.0523 3.07272 15.5 3.625 15.5V13.5ZM25.8404 15.2071C26.231 14.8166 26.231 14.1834 25.8404 13.7929L19.4765 7.42893C19.086 7.03841 18.4528 7.03841 18.0623 7.42893C17.6717 7.81946 17.6717 8.45262 18.0623 8.84315L23.7191 14.5L18.0623 20.1569C17.6717 20.5474 17.6717 21.1805 18.0623 21.5711C18.4528 21.9616 19.086 21.9616 19.4765 21.5711L25.8404 15.2071ZM3.625 15.5H25.1333V13.5H3.625V15.5Z" fill="white"/>
</svg>
